<svg xmlns="http://www.w3.org/2000/svg" xmlns:xlink="http://www.w3.org/1999/xlink" width="40" zoomAndPan="magnify" viewBox="0 0 30 30.000001" height="40" preserveAspectRatio="xMidYMid meet" version="1.0"><defs><clipPath id="91ea2a7f21"><path d="M 4 15.5625 L 26 15.5625 L 26 27.914062 L 4 27.914062 Z M 4 15.5625 " clip-rule="nonzero"/></clipPath><clipPath id="24cdb75772"><path d="M 4 1.453125 L 26 1.453125 L 26 13.800781 L 4 13.800781 Z M 4 1.453125 " clip-rule="nonzero"/></clipPath></defs><g clip-path="url(#91ea2a7f21)"><path fill="#2a6112" d="M 14.992188 27.582031 C 14.730469 27.582031 14.476562 27.476562 14.289062 27.289062 L 4.34375 17.34375 C 3.953125 16.957031 3.953125 16.324219 4.34375 15.9375 C 4.730469 15.550781 5.359375 15.550781 5.75 15.9375 L 14.992188 25.179688 L 24.234375 15.9375 C 24.625 15.550781 25.253906 15.550781 25.640625 15.9375 C 26.03125 16.324219 26.03125 16.957031 25.640625 17.34375 L 15.695312 27.292969 C 15.511719 27.476562 15.257812 27.582031 14.992188 27.582031 Z M 14.992188 27.582031 " fill-opacity="1" fill-rule="nonzero"/></g><g clip-path="url(#24cdb75772)"><path fill="#2a6112" d="M 14.992188 13.46875 C 14.730469 13.46875 14.476562 13.367188 14.289062 13.179688 L 4.34375 3.230469 C 3.953125 2.84375 3.953125 2.214844 4.34375 1.824219 C 4.730469 1.4375 5.359375 1.4375 5.75 1.824219 L 14.992188 11.070312 L 24.234375 1.824219 C 24.625 1.4375 25.253906 1.4375 25.640625 1.824219 C 26.03125 2.214844 26.03125 2.84375 25.640625 3.230469 L 15.695312 13.179688 C 15.511719 13.367188 15.257812 13.46875 14.992188 13.46875 Z M 14.992188 13.46875 " fill-opacity="1" fill-rule="nonzero"/></g></svg>