<svg xmlns="http://www.w3.org/2000/svg" xmlns:xlink="http://www.w3.org/1999/xlink" width="40" zoomAndPan="magnify" viewBox="0 0 30 30.000001" height="40" preserveAspectRatio="xMidYMid meet" version="1.0"><defs><clipPath id="b69f7924e2"><path d="M 5.273438 1.371094 L 24.871094 1.371094 L 24.871094 27.5 L 5.273438 27.5 Z M 5.273438 1.371094 " clip-rule="nonzero"/></clipPath></defs><g clip-path="url(#b69f7924e2)"><path fill="#2a6112" d="M 24.429688 20.59375 L 15.617188 27.644531 C 15.597656 27.664062 15.570312 27.667969 15.546875 27.683594 C 15.496094 27.714844 15.445312 27.738281 15.390625 27.761719 C 15.339844 27.785156 15.289062 27.800781 15.234375 27.8125 C 15.175781 27.824219 15.121094 27.824219 15.0625 27.824219 C 15.007812 27.824219 14.960938 27.824219 14.90625 27.8125 C 14.847656 27.800781 14.792969 27.78125 14.734375 27.761719 C 14.683594 27.738281 14.636719 27.714844 14.589844 27.683594 C 14.566406 27.667969 14.539062 27.664062 14.515625 27.644531 L 5.703125 20.59375 C 5.324219 20.289062 5.261719 19.738281 5.566406 19.355469 C 5.738281 19.140625 5.996094 19.027344 6.253906 19.027344 C 6.445312 19.027344 6.640625 19.089844 6.804688 19.21875 L 14.183594 25.125 L 14.191406 2.28125 C 14.191406 1.792969 14.585938 1.402344 15.070312 1.402344 C 15.558594 1.402344 15.953125 1.796875 15.953125 2.28125 L 15.949219 25.125 L 23.328125 19.21875 C 23.492188 19.089844 23.683594 19.027344 23.878906 19.027344 C 24.136719 19.027344 24.394531 19.140625 24.570312 19.359375 C 24.871094 19.738281 24.808594 20.292969 24.429688 20.59375 Z M 24.429688 20.59375 " fill-opacity="1" fill-rule="nonzero"/></g></svg>