<svg xmlns="http://www.w3.org/2000/svg" xmlns:xlink="http://www.w3.org/1999/xlink" width="40" zoomAndPan="magnify" viewBox="0 0 30 30.000001" height="40" preserveAspectRatio="xMidYMid meet" version="1.0"><defs><clipPath id="887563201f"><path d="M 7.507812 1.355469 L 22.746094 1.355469 L 22.746094 27.484375 L 7.507812 27.484375 Z M 7.507812 1.355469 " clip-rule="nonzero"/></clipPath></defs><g clip-path="url(#887563201f)"><path fill="#2a6112" d="M 22.402344 9.980469 C 22.457031 9.609375 22.488281 9.230469 22.488281 8.847656 C 22.488281 7.835938 22.289062 6.855469 21.898438 5.933594 C 21.519531 5.039062 20.980469 4.238281 20.292969 3.550781 C 19.605469 2.863281 18.804688 2.324219 17.914062 1.945312 C 16.988281 1.554688 16.007812 1.355469 14.996094 1.355469 C 13.984375 1.355469 13.003906 1.554688 12.082031 1.945312 C 11.1875 2.324219 10.386719 2.863281 9.699219 3.550781 C 9.011719 4.238281 8.472656 5.039062 8.09375 5.933594 C 7.703125 6.855469 7.507812 7.835938 7.507812 8.847656 C 7.507812 9.230469 7.535156 9.609375 7.589844 9.980469 C 7.535156 10.355469 7.507812 10.730469 7.507812 11.113281 C 7.507812 11.496094 7.535156 11.875 7.589844 12.246094 C 7.535156 12.617188 7.507812 12.996094 7.507812 13.378906 C 7.507812 13.761719 7.535156 14.140625 7.589844 14.511719 C 7.535156 14.882812 7.507812 15.261719 7.507812 15.644531 C 7.507812 16.027344 7.535156 16.40625 7.589844 16.777344 C 7.535156 17.148438 7.507812 17.527344 7.507812 17.910156 C 7.507812 18.292969 7.535156 18.671875 7.589844 19.042969 C 7.535156 19.414062 7.507812 19.792969 7.507812 20.175781 C 7.507812 21.1875 7.703125 22.167969 8.09375 23.09375 C 8.472656 23.984375 9.011719 24.785156 9.699219 25.472656 C 10.386719 26.160156 11.1875 26.699219 12.082031 27.078125 C 13.003906 27.46875 13.984375 27.667969 14.996094 27.667969 C 16.007812 27.667969 16.988281 27.46875 17.914062 27.078125 C 18.804688 26.699219 19.605469 26.160156 20.292969 25.472656 C 20.980469 24.785156 21.519531 23.984375 21.898438 23.09375 C 22.289062 22.167969 22.488281 21.1875 22.488281 20.175781 C 22.488281 19.792969 22.457031 19.414062 22.402344 19.042969 C 22.457031 18.671875 22.488281 18.292969 22.488281 17.910156 C 22.488281 17.527344 22.457031 17.148438 22.402344 16.777344 C 22.457031 16.40625 22.488281 16.027344 22.488281 15.644531 C 22.488281 15.261719 22.457031 14.882812 22.402344 14.511719 C 22.457031 14.140625 22.488281 13.761719 22.488281 13.378906 C 22.488281 12.996094 22.457031 12.617188 22.402344 12.246094 C 22.457031 11.875 22.488281 11.496094 22.488281 11.113281 C 22.488281 10.730469 22.457031 10.355469 22.402344 9.980469 Z M 22.363281 11.113281 C 22.363281 11.355469 22.351562 11.597656 22.328125 11.835938 C 22.277344 11.59375 22.214844 11.351562 22.136719 11.113281 C 22.214844 10.875 22.277344 10.632812 22.328125 10.390625 C 22.351562 10.628906 22.363281 10.871094 22.363281 11.113281 Z M 21.785156 18.511719 C 21.414062 19.390625 20.882812 20.179688 20.207031 20.855469 C 19.527344 21.53125 18.742188 22.0625 17.863281 22.433594 C 16.957031 22.816406 15.992188 23.011719 14.996094 23.011719 C 14.003906 23.011719 13.039062 22.816406 12.128906 22.433594 C 11.253906 22.0625 10.464844 21.53125 9.789062 20.855469 C 9.109375 20.179688 8.578125 19.390625 8.207031 18.511719 C 8.125 18.316406 8.050781 18.113281 7.984375 17.910156 C 8.050781 17.707031 8.125 17.507812 8.207031 17.308594 C 8.265625 17.175781 8.328125 17.042969 8.390625 16.914062 C 8.738281 17.558594 9.175781 18.148438 9.699219 18.675781 C 10.386719 19.363281 11.1875 19.902344 12.082031 20.28125 C 13.003906 20.671875 13.984375 20.867188 14.996094 20.867188 C 16.007812 20.867188 16.988281 20.671875 17.914062 20.28125 C 18.804688 19.902344 19.605469 19.363281 20.292969 18.675781 C 20.816406 18.148438 21.257812 17.558594 21.601562 16.914062 C 21.667969 17.042969 21.726562 17.175781 21.785156 17.308594 C 21.867188 17.507812 21.941406 17.707031 22.007812 17.910156 C 21.941406 18.113281 21.867188 18.316406 21.785156 18.511719 Z M 22.070312 18.113281 C 22.160156 18.417969 22.226562 18.730469 22.277344 19.042969 C 22.183594 19.636719 22.019531 20.21875 21.785156 20.777344 C 21.414062 21.652344 20.882812 22.441406 20.207031 23.117188 C 19.527344 23.796875 18.742188 24.328125 17.863281 24.699219 C 16.957031 25.082031 15.992188 25.277344 14.996094 25.277344 C 14.003906 25.277344 13.039062 25.082031 12.128906 24.699219 C 11.253906 24.328125 10.464844 23.796875 9.789062 23.117188 C 9.109375 22.441406 8.578125 21.652344 8.207031 20.777344 C 7.972656 20.21875 7.808594 19.636719 7.714844 19.042969 C 7.765625 18.730469 7.832031 18.417969 7.921875 18.113281 C 7.976562 18.265625 8.03125 18.414062 8.09375 18.5625 C 8.472656 19.453125 9.011719 20.253906 9.699219 20.941406 C 10.386719 21.628906 11.1875 22.171875 12.082031 22.546875 C 13.003906 22.9375 13.984375 23.136719 14.996094 23.136719 C 16.007812 23.136719 16.988281 22.9375 17.914062 22.546875 C 18.804688 22.171875 19.605469 21.628906 20.292969 20.941406 C 20.980469 20.253906 21.519531 19.453125 21.898438 18.5625 C 21.960938 18.414062 22.019531 18.265625 22.070312 18.113281 Z M 8.207031 10.511719 C 8.578125 9.632812 9.109375 8.847656 9.789062 8.167969 C 10.464844 7.492188 11.253906 6.960938 12.128906 6.589844 C 13.039062 6.207031 14.003906 6.011719 14.996094 6.011719 C 15.992188 6.011719 16.957031 6.207031 17.863281 6.589844 C 18.742188 6.960938 19.527344 7.492188 20.207031 8.167969 C 20.882812 8.847656 21.414062 9.632812 21.785156 10.511719 C 21.867188 10.710938 21.941406 10.910156 22.007812 11.113281 C 21.941406 11.316406 21.867188 11.515625 21.785156 11.714844 C 21.726562 11.847656 21.667969 11.980469 21.601562 12.109375 C 21.257812 11.464844 20.816406 10.875 20.292969 10.347656 C 19.605469 9.660156 18.804688 9.121094 17.914062 8.742188 C 16.988281 8.351562 16.007812 8.15625 14.996094 8.15625 C 13.984375 8.15625 13.003906 8.351562 12.082031 8.742188 C 11.1875 9.121094 10.386719 9.660156 9.699219 10.347656 C 9.175781 10.875 8.738281 11.464844 8.390625 12.109375 C 8.328125 11.980469 8.265625 11.847656 8.207031 11.714844 C 8.125 11.515625 8.050781 11.316406 7.984375 11.113281 C 8.050781 10.910156 8.125 10.710938 8.207031 10.511719 Z M 7.921875 10.910156 C 7.832031 10.605469 7.765625 10.296875 7.714844 9.980469 C 7.808594 9.386719 7.972656 8.804688 8.207031 8.246094 C 8.578125 7.371094 9.109375 6.582031 9.789062 5.90625 C 10.464844 5.230469 11.253906 4.699219 12.128906 4.328125 C 13.039062 3.941406 14.003906 3.746094 14.996094 3.746094 C 15.992188 3.746094 16.957031 3.941406 17.863281 4.328125 C 18.742188 4.699219 19.527344 5.230469 20.207031 5.90625 C 20.882812 6.582031 21.414062 7.371094 21.785156 8.246094 C 22.019531 8.804688 22.183594 9.386719 22.277344 9.980469 C 22.226562 10.296875 22.160156 10.605469 22.070312 10.910156 C 22.019531 10.761719 21.960938 10.609375 21.898438 10.464844 C 21.519531 9.570312 20.980469 8.769531 20.292969 8.082031 C 19.605469 7.394531 18.804688 6.855469 17.914062 6.476562 C 16.988281 6.085938 16.007812 5.886719 14.996094 5.886719 C 13.984375 5.886719 13.003906 6.085938 12.082031 6.476562 C 11.1875 6.855469 10.386719 7.394531 9.699219 8.082031 C 9.011719 8.769531 8.472656 9.570312 8.09375 10.464844 C 8.03125 10.609375 7.976562 10.761719 7.921875 10.910156 Z M 20.207031 16.324219 C 19.527344 17 18.742188 17.53125 17.863281 17.902344 C 16.957031 18.285156 15.992188 18.480469 14.996094 18.480469 C 14.003906 18.480469 13.039062 18.285156 12.128906 17.902344 C 11.253906 17.53125 10.464844 17 9.789062 16.324219 C 9.574219 16.109375 9.371094 15.882812 9.1875 15.644531 C 9.371094 15.410156 9.574219 15.183594 9.789062 14.96875 C 9.917969 14.835938 10.050781 14.710938 10.191406 14.59375 C 10.761719 15.070312 11.394531 15.457031 12.082031 15.75 C 13.003906 16.140625 13.984375 16.339844 14.996094 16.339844 C 16.007812 16.339844 16.988281 16.140625 17.914062 15.75 C 18.601562 15.457031 19.234375 15.070312 19.800781 14.59375 C 19.941406 14.710938 20.074219 14.835938 20.207031 14.96875 C 20.421875 15.183594 20.621094 15.410156 20.804688 15.644531 C 20.621094 15.882812 20.421875 16.109375 20.207031 16.324219 Z M 20.882812 15.746094 C 21.128906 16.070312 21.347656 16.417969 21.535156 16.777344 C 21.1875 17.445312 20.742188 18.050781 20.207031 18.585938 C 19.527344 19.265625 18.742188 19.796875 17.863281 20.167969 C 16.957031 20.550781 15.992188 20.746094 14.996094 20.746094 C 14.003906 20.746094 13.039062 20.550781 12.128906 20.167969 C 11.253906 19.796875 10.464844 19.265625 9.789062 18.585938 C 9.25 18.050781 8.804688 17.445312 8.460938 16.777344 C 8.648438 16.417969 8.863281 16.070312 9.109375 15.746094 C 9.292969 15.980469 9.488281 16.199219 9.699219 16.410156 C 10.386719 17.097656 11.1875 17.640625 12.082031 18.015625 C 13.003906 18.40625 13.984375 18.605469 14.996094 18.605469 C 16.007812 18.605469 16.988281 18.40625 17.914062 18.015625 C 18.804688 17.640625 19.605469 17.097656 20.292969 16.410156 C 20.503906 16.199219 20.699219 15.980469 20.882812 15.746094 Z M 9.109375 15.542969 C 8.863281 15.21875 8.648438 14.875 8.457031 14.511719 C 8.648438 14.148438 8.863281 13.804688 9.109375 13.480469 C 9.292969 13.710938 9.488281 13.933594 9.699219 14.144531 C 9.828125 14.273438 9.960938 14.394531 10.09375 14.511719 C 9.960938 14.628906 9.828125 14.753906 9.699219 14.878906 C 9.488281 15.089844 9.292969 15.3125 9.109375 15.542969 Z M 20.292969 14.878906 C 20.164062 14.753906 20.035156 14.628906 19.898438 14.511719 C 20.035156 14.394531 20.164062 14.273438 20.292969 14.144531 C 20.503906 13.933594 20.699219 13.710938 20.882812 13.480469 C 21.128906 13.804688 21.347656 14.148438 21.535156 14.511719 C 21.347656 14.875 21.128906 15.21875 20.882812 15.542969 C 20.699219 15.3125 20.503906 15.089844 20.292969 14.878906 Z M 20.207031 14.054688 C 20.074219 14.1875 19.941406 14.3125 19.800781 14.429688 C 19.234375 13.953125 18.601562 13.566406 17.914062 13.273438 C 16.988281 12.882812 16.007812 12.6875 14.996094 12.6875 C 13.984375 12.6875 13.003906 12.882812 12.082031 13.273438 C 11.394531 13.566406 10.761719 13.953125 10.191406 14.429688 C 10.050781 14.3125 9.917969 14.1875 9.789062 14.054688 C 9.574219 13.839844 9.371094 13.617188 9.1875 13.378906 C 9.371094 13.140625 9.574219 12.914062 9.789062 12.699219 C 10.464844 12.023438 11.253906 11.492188 12.128906 11.121094 C 13.039062 10.738281 14.003906 10.542969 14.996094 10.542969 C 15.992188 10.542969 16.957031 10.738281 17.863281 11.121094 C 18.742188 11.492188 19.527344 12.023438 20.207031 12.699219 C 20.421875 12.914062 20.621094 13.140625 20.804688 13.378906 C 20.621094 13.617188 20.421875 13.839844 20.207031 14.054688 Z M 20.292969 12.613281 C 19.605469 11.925781 18.804688 11.386719 17.914062 11.007812 C 16.988281 10.617188 16.007812 10.417969 14.996094 10.417969 C 13.984375 10.417969 13.003906 10.617188 12.082031 11.007812 C 11.1875 11.386719 10.386719 11.925781 9.699219 12.613281 C 9.488281 12.824219 9.292969 13.046875 9.109375 13.277344 C 8.863281 12.953125 8.648438 12.609375 8.460938 12.246094 C 8.804688 11.582031 9.25 10.972656 9.789062 10.4375 C 10.464844 9.761719 11.253906 9.230469 12.128906 8.859375 C 13.039062 8.472656 14.003906 8.277344 14.996094 8.277344 C 15.992188 8.277344 16.957031 8.472656 17.863281 8.859375 C 18.742188 9.230469 19.527344 9.761719 20.207031 10.4375 C 20.742188 10.972656 21.1875 11.582031 21.535156 12.246094 C 21.347656 12.609375 21.128906 12.953125 20.882812 13.277344 C 20.699219 13.046875 20.503906 12.824219 20.292969 12.613281 Z M 8.09375 11.761719 C 8.164062 11.925781 8.238281 12.089844 8.320312 12.246094 C 8.238281 12.40625 8.164062 12.566406 8.09375 12.730469 C 8.03125 12.878906 7.976562 13.027344 7.921875 13.175781 C 7.832031 12.871094 7.765625 12.5625 7.714844 12.246094 C 7.765625 11.933594 7.832031 11.621094 7.921875 11.316406 C 7.976562 11.464844 8.03125 11.617188 8.09375 11.761719 Z M 8.207031 12.777344 C 8.265625 12.644531 8.328125 12.511719 8.390625 12.382812 C 8.578125 12.730469 8.792969 13.0625 9.03125 13.378906 C 8.792969 13.695312 8.578125 14.027344 8.390625 14.375 C 8.324219 14.246094 8.265625 14.117188 8.207031 13.980469 C 8.125 13.785156 8.050781 13.582031 7.984375 13.378906 C 8.050781 13.175781 8.125 12.976562 8.207031 12.777344 Z M 8.09375 14.03125 C 8.164062 14.195312 8.238281 14.355469 8.320312 14.511719 C 8.238281 14.667969 8.164062 14.832031 8.09375 14.992188 C 8.03125 15.140625 7.976562 15.289062 7.921875 15.441406 C 7.832031 15.136719 7.765625 14.828125 7.714844 14.511719 C 7.765625 14.199219 7.832031 13.886719 7.921875 13.582031 C 7.976562 13.734375 8.03125 13.882812 8.09375 14.03125 Z M 8.207031 15.042969 C 8.265625 14.910156 8.324219 14.777344 8.390625 14.648438 C 8.578125 14.996094 8.792969 15.332031 9.03125 15.644531 C 8.792969 15.960938 8.578125 16.292969 8.390625 16.640625 C 8.328125 16.511719 8.265625 16.378906 8.207031 16.246094 C 8.125 16.046875 8.050781 15.847656 7.984375 15.644531 C 8.050781 15.441406 8.125 15.238281 8.207031 15.042969 Z M 8.09375 16.292969 C 8.164062 16.457031 8.238281 16.621094 8.320312 16.777344 C 8.238281 16.9375 8.164062 17.097656 8.09375 17.261719 C 8.03125 17.410156 7.976562 17.558594 7.921875 17.707031 C 7.832031 17.402344 7.765625 17.09375 7.714844 16.777344 C 7.765625 16.460938 7.832031 16.152344 7.921875 15.847656 C 7.976562 15.996094 8.03125 16.148438 8.09375 16.292969 Z M 21.898438 17.261719 C 21.828125 17.097656 21.753906 16.9375 21.671875 16.777344 C 21.753906 16.621094 21.828125 16.457031 21.898438 16.292969 C 21.960938 16.148438 22.019531 15.996094 22.070312 15.847656 C 22.160156 16.152344 22.230469 16.460938 22.277344 16.777344 C 22.230469 17.09375 22.160156 17.402344 22.070312 17.707031 C 22.019531 17.558594 21.960938 17.410156 21.898438 17.261719 Z M 21.785156 16.246094 C 21.726562 16.378906 21.667969 16.511719 21.601562 16.640625 C 21.414062 16.292969 21.203125 15.960938 20.960938 15.644531 C 21.203125 15.332031 21.417969 14.996094 21.601562 14.648438 C 21.667969 14.777344 21.726562 14.910156 21.785156 15.042969 C 21.867188 15.238281 21.941406 15.441406 22.007812 15.644531 C 21.941406 15.847656 21.867188 16.046875 21.785156 16.246094 Z M 21.898438 14.992188 C 21.828125 14.832031 21.753906 14.667969 21.675781 14.511719 C 21.753906 14.355469 21.828125 14.195312 21.898438 14.03125 C 21.960938 13.882812 22.019531 13.734375 22.070312 13.582031 C 22.160156 13.886719 22.226562 14.199219 22.277344 14.511719 C 22.226562 14.828125 22.160156 15.136719 22.070312 15.441406 C 22.019531 15.289062 21.960938 15.140625 21.898438 14.992188 Z M 21.785156 13.980469 C 21.726562 14.117188 21.667969 14.246094 21.601562 14.375 C 21.417969 14.027344 21.203125 13.695312 20.960938 13.378906 C 21.203125 13.0625 21.414062 12.730469 21.601562 12.382812 C 21.667969 12.511719 21.726562 12.644531 21.785156 12.777344 C 21.867188 12.976562 21.941406 13.175781 22.007812 13.378906 C 21.941406 13.582031 21.867188 13.785156 21.785156 13.980469 Z M 21.898438 12.730469 C 21.828125 12.566406 21.753906 12.40625 21.671875 12.246094 C 21.753906 12.089844 21.828125 11.925781 21.898438 11.761719 C 21.960938 11.617188 22.019531 11.464844 22.070312 11.316406 C 22.160156 11.621094 22.230469 11.933594 22.277344 12.246094 C 22.230469 12.5625 22.160156 12.871094 22.070312 13.175781 C 22.019531 13.027344 21.960938 12.878906 21.898438 12.730469 Z M 7.628906 8.847656 C 7.628906 7.851562 7.824219 6.886719 8.207031 5.980469 C 8.578125 5.101562 9.109375 4.316406 9.789062 3.636719 C 10.464844 2.960938 11.253906 2.429688 12.128906 2.058594 C 13.039062 1.675781 14.003906 1.480469 14.996094 1.480469 C 15.992188 1.480469 16.957031 1.675781 17.863281 2.058594 C 18.742188 2.429688 19.527344 2.960938 20.207031 3.636719 C 20.882812 4.316406 21.414062 5.101562 21.785156 5.980469 C 22.167969 6.886719 22.363281 7.851562 22.363281 8.847656 C 22.363281 9.089844 22.351562 9.332031 22.328125 9.570312 C 22.230469 9.101562 22.085938 8.644531 21.898438 8.199219 C 21.519531 7.308594 20.980469 6.507812 20.292969 5.816406 C 19.605469 5.128906 18.804688 4.589844 17.914062 4.214844 C 16.988281 3.824219 16.007812 3.625 14.996094 3.625 C 13.984375 3.625 13.003906 3.824219 12.082031 4.214844 C 11.1875 4.589844 10.386719 5.128906 9.699219 5.816406 C 9.011719 6.507812 8.472656 7.308594 8.09375 8.199219 C 7.90625 8.644531 7.761719 9.101562 7.664062 9.570312 C 7.640625 9.332031 7.628906 9.089844 7.628906 8.847656 Z M 7.628906 11.113281 C 7.628906 10.871094 7.640625 10.628906 7.664062 10.390625 C 7.714844 10.632812 7.78125 10.875 7.855469 11.113281 C 7.777344 11.351562 7.714844 11.59375 7.664062 11.835938 C 7.640625 11.597656 7.628906 11.355469 7.628906 11.113281 Z M 7.628906 13.378906 C 7.628906 13.136719 7.640625 12.894531 7.664062 12.65625 C 7.714844 12.902344 7.777344 13.140625 7.855469 13.378906 C 7.78125 13.617188 7.714844 13.859375 7.664062 14.101562 C 7.640625 13.863281 7.628906 13.621094 7.628906 13.378906 Z M 7.628906 15.644531 C 7.628906 15.402344 7.640625 15.160156 7.664062 14.921875 C 7.714844 15.164062 7.78125 15.40625 7.855469 15.644531 C 7.777344 15.882812 7.714844 16.125 7.664062 16.367188 C 7.640625 16.128906 7.628906 15.886719 7.628906 15.644531 Z M 7.628906 17.910156 C 7.628906 17.667969 7.640625 17.425781 7.664062 17.1875 C 7.714844 17.429688 7.777344 17.671875 7.855469 17.910156 C 7.78125 18.148438 7.714844 18.390625 7.664062 18.632812 C 7.640625 18.394531 7.628906 18.152344 7.628906 17.910156 Z M 22.363281 20.175781 C 22.363281 21.171875 22.167969 22.136719 21.785156 23.042969 C 21.414062 23.921875 20.882812 24.710938 20.207031 25.386719 C 19.527344 26.0625 18.742188 26.59375 17.863281 26.964844 C 16.957031 27.347656 15.992188 27.542969 14.996094 27.542969 C 14.003906 27.542969 13.039062 27.347656 12.128906 26.964844 C 11.253906 26.59375 10.464844 26.0625 9.789062 25.386719 C 9.109375 24.710938 8.578125 23.921875 8.207031 23.042969 C 7.824219 22.136719 7.628906 21.171875 7.628906 20.175781 C 7.628906 19.933594 7.640625 19.691406 7.664062 19.453125 C 7.761719 19.921875 7.90625 20.378906 8.09375 20.824219 C 8.472656 21.71875 9.011719 22.519531 9.699219 23.207031 C 10.386719 23.894531 11.1875 24.433594 12.082031 24.8125 C 13.003906 25.203125 13.984375 25.398438 14.996094 25.398438 C 16.007812 25.398438 16.988281 25.203125 17.914062 24.8125 C 18.804688 24.433594 19.605469 23.894531 20.292969 23.207031 C 20.980469 22.519531 21.519531 21.71875 21.898438 20.824219 C 22.085938 20.378906 22.230469 19.921875 22.328125 19.453125 C 22.351562 19.691406 22.363281 19.933594 22.363281 20.175781 Z M 22.363281 17.910156 C 22.363281 18.152344 22.351562 18.394531 22.328125 18.632812 C 22.277344 18.390625 22.214844 18.148438 22.136719 17.910156 C 22.214844 17.671875 22.277344 17.429688 22.328125 17.1875 C 22.351562 17.425781 22.363281 17.667969 22.363281 17.910156 Z M 22.363281 15.644531 C 22.363281 15.886719 22.351562 16.128906 22.328125 16.367188 C 22.277344 16.125 22.214844 15.882812 22.136719 15.644531 C 22.214844 15.40625 22.277344 15.164062 22.328125 14.921875 C 22.351562 15.160156 22.363281 15.402344 22.363281 15.644531 Z M 22.363281 13.378906 C 22.363281 13.621094 22.351562 13.863281 22.328125 14.101562 C 22.277344 13.859375 22.214844 13.617188 22.136719 13.378906 C 22.214844 13.140625 22.277344 12.902344 22.328125 12.65625 C 22.351562 12.894531 22.363281 13.136719 22.363281 13.378906 Z M 22.363281 13.378906 " fill-opacity="1" fill-rule="nonzero"/></g></svg>