<svg xmlns="http://www.w3.org/2000/svg" xmlns:xlink="http://www.w3.org/1999/xlink" width="40" zoomAndPan="magnify" viewBox="0 0 30 30.000001" height="40" preserveAspectRatio="xMidYMid meet" version="1.0"><defs><clipPath id="40dd4c804b"><path d="M 7.632812 1.582031 L 22.148438 1.582031 L 22.148438 27.710938 L 7.632812 27.710938 Z M 7.632812 1.582031 " clip-rule="nonzero"/></clipPath></defs><g clip-path="url(#40dd4c804b)"><path fill="#2a6112" d="M 22.28125 10.058594 C 22.335938 9.691406 22.363281 9.320312 22.363281 8.945312 C 22.363281 7.949219 22.167969 6.984375 21.785156 6.078125 C 21.414062 5.199219 20.882812 4.414062 20.207031 3.738281 C 19.53125 3.0625 18.742188 2.53125 17.867188 2.160156 C 16.957031 1.773438 15.992188 1.582031 15 1.582031 C 14.003906 1.582031 13.039062 1.773438 12.132812 2.160156 C 11.253906 2.53125 10.46875 3.0625 9.792969 3.738281 C 9.113281 4.414062 8.585938 5.199219 8.214844 6.078125 C 7.828125 6.984375 7.632812 7.949219 7.632812 8.945312 C 7.632812 9.320312 7.664062 9.691406 7.71875 10.058594 C 7.664062 10.425781 7.632812 10.796875 7.632812 11.171875 C 7.632812 11.550781 7.664062 11.921875 7.71875 12.285156 C 7.664062 12.652344 7.632812 13.023438 7.632812 13.398438 C 7.632812 13.777344 7.664062 14.148438 7.71875 14.515625 C 7.664062 14.878906 7.632812 15.253906 7.632812 15.628906 C 7.632812 16.003906 7.664062 16.375 7.71875 16.742188 C 7.664062 17.105469 7.632812 17.476562 7.632812 17.855469 C 7.632812 18.230469 7.664062 18.601562 7.71875 18.96875 C 7.664062 19.335938 7.632812 19.707031 7.632812 20.082031 C 7.632812 21.078125 7.828125 22.042969 8.214844 22.949219 C 8.585938 23.828125 9.113281 24.613281 9.792969 25.289062 C 10.46875 25.96875 11.253906 26.496094 12.132812 26.867188 C 13.039062 27.253906 14.003906 27.449219 15 27.449219 C 15.992188 27.449219 16.957031 27.253906 17.867188 26.867188 C 18.742188 26.496094 19.53125 25.96875 20.207031 25.289062 C 20.882812 24.613281 21.414062 23.828125 21.785156 22.949219 C 22.167969 22.042969 22.363281 21.078125 22.363281 20.082031 C 22.363281 19.707031 22.335938 19.335938 22.28125 18.96875 C 22.335938 18.601562 22.363281 18.230469 22.363281 17.855469 C 22.363281 17.476562 22.335938 17.105469 22.28125 16.742188 C 22.335938 16.375 22.363281 16.003906 22.363281 15.628906 C 22.363281 15.253906 22.335938 14.878906 22.28125 14.515625 C 22.335938 14.148438 22.363281 13.777344 22.363281 13.398438 C 22.363281 13.023438 22.335938 12.652344 22.28125 12.285156 C 22.335938 11.921875 22.363281 11.550781 22.363281 11.171875 C 22.363281 10.796875 22.335938 10.425781 22.28125 10.058594 Z M 22.242188 11.171875 C 22.242188 11.410156 22.230469 11.648438 22.207031 11.882812 C 22.15625 11.644531 22.09375 11.40625 22.019531 11.171875 C 22.09375 10.9375 22.15625 10.699219 22.207031 10.460938 C 22.230469 10.695312 22.242188 10.933594 22.242188 11.171875 Z M 21.671875 18.449219 C 21.308594 19.308594 20.785156 20.085938 20.121094 20.75 C 19.453125 21.414062 18.679688 21.9375 17.816406 22.300781 C 16.925781 22.679688 15.976562 22.871094 15 22.871094 C 14.019531 22.871094 13.074219 22.679688 12.179688 22.300781 C 11.316406 21.9375 10.542969 21.414062 9.878906 20.75 C 9.210938 20.085938 8.691406 19.308594 8.324219 18.449219 C 8.242188 18.253906 8.167969 18.054688 8.105469 17.855469 C 8.167969 17.65625 8.242188 17.457031 8.324219 17.265625 C 8.382812 17.132812 8.441406 17.003906 8.503906 16.875 C 8.84375 17.511719 9.277344 18.089844 9.792969 18.605469 C 10.46875 19.28125 11.253906 19.8125 12.132812 20.183594 C 13.039062 20.570312 14.003906 20.765625 15 20.765625 C 15.992188 20.765625 16.957031 20.570312 17.867188 20.183594 C 18.742188 19.8125 19.53125 19.28125 20.207031 18.605469 C 20.722656 18.089844 21.152344 17.511719 21.492188 16.875 C 21.554688 17.003906 21.617188 17.132812 21.671875 17.265625 C 21.753906 17.457031 21.828125 17.65625 21.894531 17.855469 C 21.828125 18.054688 21.753906 18.253906 21.671875 18.449219 Z M 21.953125 18.054688 C 22.042969 18.355469 22.109375 18.660156 22.15625 18.96875 C 22.066406 19.554688 21.90625 20.125 21.671875 20.671875 C 21.308594 21.535156 20.785156 22.308594 20.121094 22.976562 C 19.453125 23.640625 18.679688 24.164062 17.816406 24.527344 C 16.925781 24.90625 15.976562 25.097656 15 25.097656 C 14.019531 25.097656 13.074219 24.90625 12.179688 24.527344 C 11.316406 24.164062 10.542969 23.640625 9.878906 22.976562 C 9.210938 22.308594 8.691406 21.535156 8.324219 20.671875 C 8.09375 20.125 7.929688 19.554688 7.839844 18.96875 C 7.886719 18.660156 7.957031 18.355469 8.042969 18.054688 C 8.09375 18.203125 8.152344 18.351562 8.214844 18.496094 C 8.585938 19.371094 9.113281 20.160156 9.792969 20.835938 C 10.46875 21.511719 11.253906 22.042969 12.132812 22.414062 C 13.039062 22.796875 14.003906 22.992188 15 22.992188 C 15.992188 22.992188 16.957031 22.796875 17.867188 22.414062 C 18.742188 22.042969 19.53125 21.511719 20.207031 20.835938 C 20.882812 20.160156 21.414062 19.371094 21.785156 18.496094 C 21.847656 18.351562 21.902344 18.203125 21.953125 18.054688 Z M 8.324219 10.582031 C 8.691406 9.71875 9.210938 8.941406 9.878906 8.277344 C 10.542969 7.613281 11.316406 7.089844 12.179688 6.726562 C 13.074219 6.347656 14.019531 6.15625 15 6.15625 C 15.976562 6.15625 16.925781 6.347656 17.816406 6.726562 C 18.679688 7.089844 19.453125 7.613281 20.121094 8.277344 C 20.785156 8.941406 21.308594 9.71875 21.671875 10.582031 C 21.753906 10.773438 21.828125 10.972656 21.894531 11.171875 C 21.828125 11.371094 21.753906 11.570312 21.671875 11.765625 C 21.617188 11.894531 21.554688 12.027344 21.492188 12.152344 C 21.152344 11.519531 20.722656 10.9375 20.207031 10.421875 C 19.53125 9.746094 18.742188 9.214844 17.867188 8.84375 C 16.957031 8.457031 15.992188 8.265625 15 8.265625 C 14.003906 8.265625 13.039062 8.457031 12.132812 8.84375 C 11.253906 9.214844 10.46875 9.746094 9.792969 10.421875 C 9.277344 10.9375 8.84375 11.519531 8.503906 12.152344 C 8.441406 12.027344 8.382812 11.894531 8.324219 11.765625 C 8.242188 11.570312 8.167969 11.371094 8.105469 11.171875 C 8.167969 10.972656 8.242188 10.773438 8.324219 10.582031 Z M 8.042969 10.972656 C 7.957031 10.671875 7.886719 10.367188 7.839844 10.058594 C 7.929688 9.472656 8.09375 8.902344 8.324219 8.355469 C 8.691406 7.492188 9.210938 6.71875 9.878906 6.050781 C 10.542969 5.386719 11.316406 4.863281 12.179688 4.5 C 13.074219 4.121094 14.019531 3.929688 15 3.929688 C 15.976562 3.929688 16.925781 4.121094 17.816406 4.5 C 18.679688 4.863281 19.453125 5.386719 20.121094 6.050781 C 20.785156 6.71875 21.308594 7.492188 21.671875 8.355469 C 21.90625 8.902344 22.066406 9.472656 22.15625 10.058594 C 22.109375 10.367188 22.042969 10.671875 21.953125 10.972656 C 21.902344 10.824219 21.847656 10.679688 21.785156 10.53125 C 21.414062 9.65625 20.882812 8.867188 20.207031 8.191406 C 19.53125 7.515625 18.742188 6.984375 17.867188 6.613281 C 16.957031 6.230469 15.992188 6.035156 15 6.035156 C 14.003906 6.035156 13.039062 6.230469 12.132812 6.613281 C 11.253906 6.984375 10.46875 7.515625 9.792969 8.191406 C 9.113281 8.867188 8.585938 9.65625 8.214844 10.53125 C 8.152344 10.679688 8.09375 10.824219 8.042969 10.972656 Z M 20.121094 16.292969 C 19.453125 16.960938 18.679688 17.480469 17.816406 17.847656 C 16.925781 18.226562 15.976562 18.417969 15 18.417969 C 14.019531 18.417969 13.074219 18.226562 12.179688 17.847656 C 11.316406 17.480469 10.542969 16.960938 9.878906 16.292969 C 9.664062 16.082031 9.46875 15.859375 9.289062 15.628906 C 9.46875 15.394531 9.664062 15.171875 9.878906 14.960938 C 10.003906 14.832031 10.136719 14.710938 10.273438 14.59375 C 10.832031 15.0625 11.457031 15.445312 12.132812 15.730469 C 13.039062 16.113281 14.003906 16.308594 15 16.308594 C 15.992188 16.308594 16.957031 16.113281 17.867188 15.730469 C 18.542969 15.445312 19.164062 15.0625 19.722656 14.59375 C 19.859375 14.710938 19.992188 14.832031 20.121094 14.960938 C 20.332031 15.171875 20.527344 15.394531 20.710938 15.628906 C 20.527344 15.859375 20.332031 16.082031 20.121094 16.292969 Z M 20.785156 15.726562 C 21.027344 16.046875 21.242188 16.386719 21.425781 16.742188 C 21.085938 17.394531 20.648438 17.992188 20.121094 18.519531 C 19.453125 19.1875 18.679688 19.707031 17.816406 20.074219 C 16.925781 20.449219 15.976562 20.640625 15 20.640625 C 14.019531 20.640625 13.074219 20.449219 12.179688 20.074219 C 11.316406 19.707031 10.542969 19.1875 9.878906 18.519531 C 9.347656 17.992188 8.910156 17.394531 8.570312 16.742188 C 8.757812 16.386719 8.96875 16.046875 9.210938 15.726562 C 9.390625 15.957031 9.582031 16.171875 9.792969 16.382812 C 10.46875 17.058594 11.253906 17.589844 12.132812 17.960938 C 13.039062 18.34375 14.003906 18.539062 15 18.539062 C 15.992188 18.539062 16.957031 18.34375 17.867188 17.960938 C 18.742188 17.589844 19.53125 17.058594 20.207031 16.382812 C 20.414062 16.171875 20.605469 15.957031 20.785156 15.726562 Z M 9.210938 15.527344 C 8.96875 15.207031 8.753906 14.871094 8.570312 14.515625 C 8.753906 14.15625 8.96875 13.820312 9.210938 13.5 C 9.390625 13.726562 9.582031 13.945312 9.792969 14.152344 C 9.917969 14.277344 10.046875 14.398438 10.179688 14.515625 C 10.046875 14.628906 9.917969 14.75 9.792969 14.875 C 9.582031 15.082031 9.390625 15.300781 9.210938 15.527344 Z M 10.367188 14.515625 C 10.914062 14.058594 11.519531 13.6875 12.179688 13.410156 C 13.074219 13.03125 14.019531 12.839844 15 12.839844 C 15.976562 12.839844 16.925781 13.03125 17.816406 13.410156 C 18.476562 13.6875 19.082031 14.058594 19.628906 14.515625 C 19.082031 14.96875 18.476562 15.339844 17.816406 15.617188 C 16.925781 15.996094 15.976562 16.1875 15 16.1875 C 14.019531 16.1875 13.074219 15.996094 12.179688 15.617188 C 11.519531 15.339844 10.914062 14.96875 10.367188 14.515625 Z M 20.207031 14.875 C 20.082031 14.75 19.949219 14.628906 19.816406 14.515625 C 19.949219 14.398438 20.082031 14.277344 20.207031 14.152344 C 20.414062 13.945312 20.605469 13.726562 20.785156 13.5 C 21.027344 13.820312 21.242188 14.15625 21.425781 14.515625 C 21.242188 14.871094 21.027344 15.207031 20.785156 15.527344 C 20.605469 15.300781 20.414062 15.082031 20.207031 14.875 Z M 20.121094 14.066406 C 19.992188 14.195312 19.859375 14.316406 19.722656 14.433594 C 19.164062 13.964844 18.542969 13.582031 17.867188 13.296875 C 16.957031 12.914062 15.992188 12.71875 15 12.71875 C 14.003906 12.71875 13.039062 12.914062 12.132812 13.296875 C 11.457031 13.582031 10.832031 13.964844 10.273438 14.433594 C 10.136719 14.316406 10.003906 14.195312 9.878906 14.066406 C 9.664062 13.855469 9.46875 13.632812 9.289062 13.398438 C 9.46875 13.167969 9.664062 12.945312 9.878906 12.734375 C 10.542969 12.066406 11.316406 11.546875 12.179688 11.179688 C 13.074219 10.804688 14.019531 10.609375 15 10.609375 C 15.976562 10.609375 16.925781 10.804688 17.816406 11.179688 C 18.679688 11.546875 19.453125 12.066406 20.121094 12.734375 C 20.332031 12.945312 20.527344 13.167969 20.710938 13.398438 C 20.527344 13.632812 20.332031 13.855469 20.121094 14.066406 Z M 20.207031 12.648438 C 19.53125 11.96875 18.742188 11.4375 17.867188 11.070312 C 16.957031 10.683594 15.992188 10.488281 15 10.488281 C 14.003906 10.488281 13.039062 10.683594 12.132812 11.070312 C 11.253906 11.4375 10.46875 11.96875 9.792969 12.648438 C 9.582031 12.855469 9.390625 13.070312 9.210938 13.300781 C 8.96875 12.980469 8.757812 12.640625 8.570312 12.285156 C 8.910156 11.632812 9.347656 11.035156 9.878906 10.507812 C 10.542969 9.839844 11.316406 9.320312 12.179688 8.953125 C 13.074219 8.578125 14.019531 8.386719 15 8.386719 C 15.976562 8.386719 16.925781 8.578125 17.816406 8.953125 C 18.679688 9.320312 19.453125 9.839844 20.121094 10.507812 C 20.648438 11.035156 21.085938 11.632812 21.425781 12.285156 C 21.242188 12.640625 21.027344 12.980469 20.785156 13.300781 C 20.605469 13.070312 20.414062 12.855469 20.207031 12.648438 Z M 8.214844 11.8125 C 8.28125 11.972656 8.355469 12.132812 8.433594 12.285156 C 8.355469 12.441406 8.28125 12.601562 8.214844 12.761719 C 8.152344 12.90625 8.09375 13.054688 8.042969 13.203125 C 7.957031 12.902344 7.886719 12.597656 7.839844 12.285156 C 7.886719 11.976562 7.957031 11.671875 8.042969 11.371094 C 8.09375 11.519531 8.152344 11.664062 8.214844 11.8125 Z M 8.324219 12.808594 C 8.382812 12.675781 8.441406 12.546875 8.503906 12.417969 C 8.6875 12.761719 8.898438 13.089844 9.132812 13.398438 C 8.898438 13.710938 8.6875 14.035156 8.503906 14.378906 C 8.441406 14.253906 8.378906 14.125 8.324219 13.992188 C 8.242188 13.796875 8.167969 13.601562 8.105469 13.402344 C 8.167969 13.199219 8.242188 13.003906 8.324219 12.808594 Z M 8.214844 14.039062 C 8.28125 14.199219 8.355469 14.359375 8.433594 14.515625 C 8.355469 14.667969 8.28125 14.828125 8.214844 14.988281 C 8.152344 15.132812 8.09375 15.28125 8.042969 15.425781 C 7.957031 15.128906 7.886719 14.824219 7.839844 14.515625 C 7.886719 14.203125 7.957031 13.898438 8.042969 13.601562 C 8.09375 13.75 8.152344 13.894531 8.214844 14.039062 Z M 8.324219 15.035156 C 8.378906 14.902344 8.441406 14.773438 8.503906 14.648438 C 8.6875 14.992188 8.898438 15.316406 9.132812 15.628906 C 8.898438 15.9375 8.6875 16.265625 8.503906 16.609375 C 8.441406 16.480469 8.382812 16.351562 8.324219 16.21875 C 8.242188 16.023438 8.167969 15.828125 8.105469 15.625 C 8.167969 15.425781 8.242188 15.230469 8.324219 15.035156 Z M 8.214844 16.265625 C 8.28125 16.425781 8.355469 16.585938 8.433594 16.742188 C 8.355469 16.898438 8.28125 17.054688 8.214844 17.214844 C 8.152344 17.363281 8.09375 17.507812 8.042969 17.65625 C 7.957031 17.355469 7.886719 17.050781 7.839844 16.742188 C 7.886719 16.433594 7.957031 16.125 8.042969 15.824219 C 8.09375 15.972656 8.152344 16.121094 8.214844 16.265625 Z M 21.785156 17.214844 C 21.714844 17.054688 21.640625 16.898438 21.5625 16.742188 C 21.640625 16.585938 21.714844 16.425781 21.785156 16.265625 C 21.847656 16.121094 21.902344 15.972656 21.953125 15.824219 C 22.042969 16.125 22.109375 16.433594 22.15625 16.742188 C 22.109375 17.050781 22.042969 17.355469 21.953125 17.65625 C 21.902344 17.507812 21.847656 17.363281 21.785156 17.214844 Z M 21.671875 16.21875 C 21.617188 16.351562 21.554688 16.480469 21.492188 16.609375 C 21.308594 16.265625 21.097656 15.9375 20.863281 15.628906 C 21.101562 15.316406 21.308594 14.992188 21.496094 14.648438 C 21.558594 14.773438 21.617188 14.902344 21.671875 15.035156 C 21.753906 15.230469 21.828125 15.425781 21.894531 15.625 C 21.828125 15.828125 21.753906 16.023438 21.671875 16.21875 Z M 21.785156 14.988281 C 21.714844 14.828125 21.644531 14.667969 21.5625 14.515625 C 21.644531 14.359375 21.714844 14.199219 21.785156 14.039062 C 21.847656 13.894531 21.902344 13.75 21.953125 13.601562 C 22.042969 13.898438 22.109375 14.203125 22.15625 14.515625 C 22.109375 14.824219 22.042969 15.128906 21.953125 15.425781 C 21.902344 15.28125 21.847656 15.132812 21.785156 14.988281 Z M 21.671875 13.992188 C 21.617188 14.125 21.558594 14.253906 21.496094 14.378906 C 21.308594 14.035156 21.101562 13.710938 20.863281 13.398438 C 21.097656 13.089844 21.308594 12.761719 21.492188 12.417969 C 21.554688 12.546875 21.617188 12.675781 21.671875 12.808594 C 21.753906 13.003906 21.828125 13.199219 21.894531 13.402344 C 21.828125 13.601562 21.753906 13.796875 21.671875 13.992188 Z M 21.785156 12.761719 C 21.714844 12.601562 21.640625 12.441406 21.5625 12.285156 C 21.640625 12.132812 21.714844 11.972656 21.785156 11.8125 C 21.847656 11.664062 21.902344 11.519531 21.953125 11.371094 C 22.042969 11.671875 22.109375 11.976562 22.15625 12.285156 C 22.109375 12.597656 22.042969 12.902344 21.953125 13.203125 C 21.902344 13.054688 21.847656 12.90625 21.785156 12.761719 Z M 7.757812 8.945312 C 7.757812 7.964844 7.949219 7.019531 8.324219 6.125 C 8.691406 5.261719 9.210938 4.488281 9.878906 3.824219 C 10.542969 3.15625 11.316406 2.636719 12.179688 2.269531 C 13.074219 1.894531 14.019531 1.703125 15 1.703125 C 15.976562 1.703125 16.925781 1.894531 17.816406 2.269531 C 18.679688 2.636719 19.453125 3.15625 20.121094 3.824219 C 20.785156 4.488281 21.308594 5.261719 21.671875 6.125 C 22.050781 7.019531 22.242188 7.964844 22.242188 8.945312 C 22.242188 9.183594 22.230469 9.421875 22.207031 9.65625 C 22.109375 9.195312 21.96875 8.746094 21.785156 8.308594 C 21.414062 7.429688 20.882812 6.640625 20.207031 5.964844 C 19.53125 5.289062 18.742188 4.757812 17.867188 4.386719 C 16.957031 4.003906 15.992188 3.808594 15 3.808594 C 14.003906 3.808594 13.039062 4.003906 12.132812 4.386719 C 11.253906 4.757812 10.46875 5.289062 9.792969 5.964844 C 9.113281 6.640625 8.585938 7.429688 8.214844 8.308594 C 8.027344 8.746094 7.886719 9.195312 7.789062 9.65625 C 7.765625 9.421875 7.757812 9.183594 7.757812 8.945312 Z M 7.757812 11.171875 C 7.757812 10.933594 7.765625 10.695312 7.789062 10.460938 C 7.839844 10.699219 7.902344 10.9375 7.976562 11.171875 C 7.902344 11.40625 7.839844 11.644531 7.789062 11.882812 C 7.765625 11.648438 7.757812 11.410156 7.757812 11.171875 Z M 7.757812 13.398438 C 7.757812 13.160156 7.765625 12.925781 7.789062 12.6875 C 7.839844 12.929688 7.902344 13.167969 7.976562 13.402344 C 7.902344 13.632812 7.839844 13.871094 7.789062 14.113281 C 7.765625 13.875 7.757812 13.636719 7.757812 13.398438 Z M 7.757812 15.628906 C 7.757812 15.390625 7.765625 15.152344 7.789062 14.914062 C 7.839844 15.15625 7.902344 15.394531 7.976562 15.625 C 7.902344 15.859375 7.839844 16.097656 7.789062 16.339844 C 7.765625 16.105469 7.757812 15.867188 7.757812 15.628906 Z M 7.757812 17.855469 C 7.757812 17.617188 7.765625 17.378906 7.789062 17.144531 C 7.839844 17.382812 7.902344 17.621094 7.976562 17.855469 C 7.902344 18.089844 7.839844 18.328125 7.789062 18.566406 C 7.765625 18.332031 7.757812 18.09375 7.757812 17.855469 Z M 22.242188 20.082031 C 22.242188 21.0625 22.050781 22.007812 21.671875 22.902344 C 21.308594 23.765625 20.785156 24.539062 20.121094 25.203125 C 19.453125 25.871094 18.679688 26.390625 17.816406 26.757812 C 16.925781 27.132812 15.976562 27.324219 15 27.324219 C 14.019531 27.324219 13.074219 27.132812 12.179688 26.757812 C 11.316406 26.390625 10.542969 25.871094 9.878906 25.203125 C 9.210938 24.539062 8.691406 23.765625 8.324219 22.902344 C 7.949219 22.007812 7.757812 21.0625 7.757812 20.082031 C 7.757812 19.84375 7.765625 19.605469 7.789062 19.371094 C 7.886719 19.832031 8.027344 20.28125 8.214844 20.722656 C 8.585938 21.597656 9.113281 22.386719 9.792969 23.0625 C 10.46875 23.738281 11.253906 24.269531 12.132812 24.640625 C 13.039062 25.023438 14.003906 25.21875 15 25.21875 C 15.992188 25.21875 16.957031 25.023438 17.867188 24.640625 C 18.742188 24.269531 19.53125 23.738281 20.207031 23.0625 C 20.882812 22.386719 21.414062 21.597656 21.785156 20.722656 C 21.96875 20.28125 22.109375 19.832031 22.207031 19.371094 C 22.230469 19.605469 22.242188 19.84375 22.242188 20.082031 Z M 22.242188 17.855469 C 22.242188 18.09375 22.230469 18.332031 22.207031 18.566406 C 22.15625 18.328125 22.09375 18.089844 22.019531 17.855469 C 22.09375 17.621094 22.15625 17.382812 22.207031 17.144531 C 22.230469 17.378906 22.242188 17.617188 22.242188 17.855469 Z M 22.242188 15.628906 C 22.242188 15.867188 22.230469 16.105469 22.207031 16.339844 C 22.15625 16.097656 22.09375 15.859375 22.019531 15.625 C 22.09375 15.394531 22.15625 15.15625 22.207031 14.914062 C 22.230469 15.152344 22.242188 15.390625 22.242188 15.628906 Z M 22.242188 13.398438 C 22.242188 13.636719 22.230469 13.875 22.207031 14.113281 C 22.15625 13.871094 22.09375 13.632812 22.019531 13.402344 C 22.09375 13.167969 22.15625 12.929688 22.207031 12.6875 C 22.230469 12.925781 22.242188 13.160156 22.242188 13.398438 Z M 22.242188 13.398438 " fill-opacity="1" fill-rule="nonzero"/></g></svg>