<svg xmlns="http://www.w3.org/2000/svg" xmlns:xlink="http://www.w3.org/1999/xlink" width="40" zoomAndPan="magnify" viewBox="0 0 30 30.000001" height="40" preserveAspectRatio="xMidYMid meet" version="1.0"><defs><clipPath id="b30ebb975c"><path d="M 1.933594 2.378906 L 28.066406 2.378906 L 28.066406 26.328125 L 1.933594 26.328125 Z M 1.933594 2.378906 " clip-rule="nonzero"/></clipPath></defs><g clip-path="url(#b30ebb975c)"><path fill="#2a6112" d="M 28.0625 14.511719 C 28.0625 13.816406 27.710938 13.140625 27.019531 12.511719 C 26.398438 11.945312 25.527344 11.429688 24.425781 10.984375 C 25.527344 10.542969 26.398438 10.027344 27.019531 9.460938 C 27.710938 8.828125 28.0625 8.15625 28.0625 7.460938 C 28.0625 6.765625 27.710938 6.09375 27.019531 5.460938 C 26.359375 4.855469 25.414062 4.316406 24.214844 3.851562 C 21.753906 2.902344 18.480469 2.378906 15 2.378906 C 11.519531 2.378906 8.246094 2.902344 5.785156 3.851562 C 4.585938 4.316406 3.640625 4.855469 2.980469 5.460938 C 2.289062 6.09375 1.9375 6.765625 1.9375 7.460938 C 1.9375 8.15625 2.289062 8.828125 2.980469 9.460938 C 3.601562 10.027344 4.472656 10.542969 5.574219 10.984375 C 4.472656 11.429688 3.601562 11.945312 2.980469 12.511719 C 2.289062 13.140625 1.9375 13.816406 1.9375 14.511719 C 1.9375 15.207031 2.289062 15.878906 2.980469 16.511719 C 3.601562 17.078125 4.472656 17.589844 5.574219 18.035156 C 4.472656 18.480469 3.601562 18.996094 2.980469 19.5625 C 2.289062 20.191406 1.9375 20.867188 1.9375 21.5625 C 1.9375 22.257812 2.289062 22.929688 2.980469 23.5625 C 3.640625 24.164062 4.585938 24.707031 5.785156 25.171875 C 8.246094 26.121094 11.519531 26.644531 15 26.644531 C 18.480469 26.644531 21.753906 26.121094 24.214844 25.171875 C 25.414062 24.707031 26.359375 24.164062 27.019531 23.5625 C 27.710938 22.929688 28.0625 22.257812 28.0625 21.5625 C 28.0625 20.867188 27.710938 20.191406 27.019531 19.5625 C 26.398438 18.996094 25.527344 18.480469 24.425781 18.035156 C 25.527344 17.589844 26.398438 17.078125 27.019531 16.511719 C 27.710938 15.878906 28.0625 15.207031 28.0625 14.511719 Z M 3.0625 9.371094 C 2.398438 8.761719 2.0625 8.121094 2.0625 7.460938 C 2.0625 6.800781 2.398438 6.160156 3.0625 5.550781 C 3.710938 4.957031 4.644531 4.425781 5.828125 3.96875 C 8.277344 3.023438 11.535156 2.5 15 2.5 C 18.464844 2.5 21.722656 3.023438 24.167969 3.96875 C 25.355469 4.425781 26.289062 4.957031 26.9375 5.550781 C 27.601562 6.160156 27.9375 6.800781 27.9375 7.460938 C 27.9375 8.121094 27.601562 8.761719 26.9375 9.371094 C 26.304688 9.949219 25.402344 10.46875 24.257812 10.921875 C 24.242188 10.914062 24.230469 10.910156 24.214844 10.902344 C 21.753906 9.953125 18.480469 9.429688 15 9.429688 C 11.519531 9.429688 8.246094 9.953125 5.785156 10.902344 C 5.769531 10.910156 5.757812 10.914062 5.742188 10.921875 C 4.597656 10.46875 3.695312 9.949219 3.0625 9.371094 Z M 24.085938 10.984375 C 21.648438 11.910156 18.425781 12.421875 15 12.421875 C 11.574219 12.421875 8.351562 11.910156 5.914062 10.984375 C 8.351562 10.058594 11.574219 9.550781 15 9.550781 C 18.425781 9.550781 21.648438 10.058594 24.085938 10.984375 Z M 26.9375 19.652344 C 27.601562 20.257812 27.9375 20.902344 27.9375 21.5625 C 27.9375 22.222656 27.601562 22.863281 26.9375 23.472656 C 26.289062 24.0625 25.355469 24.597656 24.167969 25.054688 C 21.722656 26 18.464844 26.523438 15 26.523438 C 11.535156 26.523438 8.277344 26 5.828125 25.054688 C 4.644531 24.597656 3.710938 24.0625 3.0625 23.472656 C 2.398438 22.863281 2.0625 22.222656 2.0625 21.5625 C 2.0625 20.902344 2.398438 20.257812 3.0625 19.652344 C 3.695312 19.074219 4.597656 18.554688 5.742188 18.101562 C 5.757812 18.109375 5.769531 18.113281 5.785156 18.121094 C 8.246094 19.070312 11.519531 19.59375 15 19.59375 C 18.480469 19.59375 21.753906 19.070312 24.214844 18.121094 C 24.230469 18.113281 24.242188 18.109375 24.257812 18.101562 C 25.402344 18.554688 26.304688 19.074219 26.9375 19.652344 Z M 5.914062 18.035156 C 8.351562 17.109375 11.574219 16.601562 15 16.601562 C 18.425781 16.601562 21.648438 17.109375 24.085938 18.035156 C 21.648438 18.960938 18.425781 19.472656 15 19.472656 C 11.574219 19.472656 8.351562 18.960938 5.914062 18.035156 Z M 24.257812 17.96875 C 24.242188 17.964844 24.230469 17.960938 24.214844 17.953125 C 21.753906 17.003906 18.480469 16.476562 15 16.476562 C 11.519531 16.476562 8.246094 17.003906 5.785156 17.953125 C 5.769531 17.960938 5.757812 17.964844 5.742188 17.96875 C 4.597656 17.519531 3.695312 17 3.0625 16.421875 C 2.398438 15.8125 2.0625 15.171875 2.0625 14.511719 C 2.0625 13.851562 2.398438 13.210938 3.0625 12.601562 C 3.695312 12.023438 4.597656 11.503906 5.742188 11.050781 C 5.757812 11.058594 5.769531 11.0625 5.785156 11.070312 C 8.246094 12.019531 11.519531 12.542969 15 12.542969 C 18.480469 12.542969 21.753906 12.019531 24.214844 11.070312 C 24.230469 11.0625 24.242188 11.058594 24.257812 11.050781 C 25.402344 11.503906 26.304688 12.023438 26.9375 12.601562 C 27.601562 13.210938 27.9375 13.851562 27.9375 14.511719 C 27.9375 15.171875 27.601562 15.8125 26.9375 16.421875 C 26.304688 17 25.402344 17.519531 24.257812 17.96875 Z M 24.257812 17.96875 " fill-opacity="1" fill-rule="nonzero"/></g></svg>