<svg xmlns="http://www.w3.org/2000/svg" xmlns:xlink="http://www.w3.org/1999/xlink" width="40" zoomAndPan="magnify" viewBox="0 0 30 30.000001" height="40" preserveAspectRatio="xMidYMid meet" version="1.0"><defs><clipPath id="ce847ae945"><path d="M 1.902344 6.34375 L 28.035156 6.34375 L 28.035156 23 L 1.902344 23 Z M 1.902344 6.34375 " clip-rule="nonzero"/></clipPath></defs><g clip-path="url(#ce847ae945)"><path fill="#2a6112" d="M 14.996094 22.683594 C 11.515625 22.683594 8.242188 21.839844 5.777344 20.316406 C 4.570312 19.566406 3.621094 18.695312 2.957031 17.722656 C 2.265625 16.707031 1.914062 15.628906 1.914062 14.511719 C 1.914062 13.394531 2.265625 12.316406 2.957031 11.300781 C 3.621094 10.328125 4.570312 9.457031 5.777344 8.707031 C 8.242188 7.183594 11.515625 6.339844 14.996094 6.339844 C 18.476562 6.339844 21.75 7.183594 24.214844 8.707031 C 25.421875 9.457031 26.371094 10.328125 27.035156 11.300781 C 27.726562 12.316406 28.078125 13.394531 28.078125 14.511719 C 28.078125 15.628906 27.726562 16.707031 27.035156 17.722656 C 26.371094 18.695312 25.421875 19.566406 24.214844 20.316406 C 21.75 21.839844 18.476562 22.683594 14.996094 22.683594 Z M 14.996094 6.703125 C 7.980469 6.703125 2.273438 10.207031 2.273438 14.511719 C 2.273438 18.816406 7.980469 22.320312 14.996094 22.320312 C 22.011719 22.320312 27.71875 18.816406 27.71875 14.511719 C 27.71875 10.207031 22.011719 6.703125 14.996094 6.703125 Z M 14.996094 6.703125 " fill-opacity="1" fill-rule="nonzero"/></g></svg>