<svg xmlns="http://www.w3.org/2000/svg" xmlns:xlink="http://www.w3.org/1999/xlink" width="40" zoomAndPan="magnify" viewBox="0 0 30 30.000001" height="40" preserveAspectRatio="xMidYMid meet" version="1.0"><defs><clipPath id="c7c3e366dd"><path d="M 1.871094 9.445312 L 28 9.445312 L 28 19.609375 L 1.871094 19.609375 Z M 1.871094 9.445312 " clip-rule="nonzero"/></clipPath></defs><g clip-path="url(#c7c3e366dd)"><path fill="#2a6112" d="M 24.171875 18.101562 C 25.367188 17.640625 26.308594 17.101562 26.964844 16.5 C 27.652344 15.875 28 15.203125 28 14.511719 C 28 13.816406 27.652344 13.148438 26.964844 12.519531 C 26.308594 11.917969 25.367188 11.378906 24.171875 10.917969 C 21.722656 9.972656 18.464844 9.449219 15 9.449219 C 11.535156 9.449219 8.277344 9.972656 5.828125 10.917969 C 4.632812 11.378906 3.691406 11.917969 3.035156 12.519531 C 2.347656 13.148438 1.996094 13.816406 1.996094 14.511719 C 1.996094 15.203125 2.347656 15.875 3.035156 16.5 C 3.691406 17.101562 4.632812 17.640625 5.828125 18.101562 C 8.277344 19.050781 11.535156 19.570312 15 19.570312 C 18.464844 19.570312 21.722656 19.050781 24.171875 18.101562 Z M 5.871094 17.988281 C 4.691406 17.53125 3.761719 17 3.117188 16.410156 C 2.457031 15.808594 2.121094 15.167969 2.121094 14.511719 C 2.121094 13.855469 2.457031 13.214844 3.117188 12.609375 C 3.761719 12.019531 4.691406 11.488281 5.871094 11.03125 C 8.308594 10.089844 11.550781 9.574219 15 9.574219 C 18.449219 9.574219 21.691406 10.089844 24.128906 11.03125 C 25.308594 11.488281 26.234375 12.019531 26.882812 12.609375 C 27.542969 13.214844 27.878906 13.855469 27.878906 14.511719 C 27.878906 15.167969 27.542969 15.808594 26.882812 16.410156 C 26.234375 17 25.308594 17.53125 24.128906 17.988281 C 21.691406 18.929688 18.449219 19.449219 15 19.449219 C 11.550781 19.449219 8.308594 18.929688 5.871094 17.988281 Z M 5.871094 17.988281 " fill-opacity="1" fill-rule="nonzero"/></g></svg>