<?xml version="1.0" encoding="UTF-8"?> <svg xmlns="http://www.w3.org/2000/svg" width="28" height="28" viewBox="0 0 28 28" fill="none"> <g clip-path="url(#clip0_953_1314)"> <path d="M13.9996 14L6.55061 23.5698C5.9647 24.2262 4.93656 24.2437 4.34067 23.6334C3.75404 23.0327 3.78366 22.0255 4.42984 21.449C7.61975 18.966 10.8097 16.483 13.9996 14Z" fill="#2A6112"></path> <path d="M13.9993 14.0002L1.96518 15.4997C1.08679 15.5495 0.347361 14.8349 0.357525 13.9821C0.367518 13.1424 1.10062 12.4513 1.96518 12.5005C5.97655 13.0004 9.98793 13.5002 13.9993 14.0002Z" fill="#2A6112"></path> <path d="M13.9989 13.9996L4.42915 6.55061C3.77281 5.9647 3.75527 4.93656 4.36552 4.34067C4.96629 3.75404 5.97341 3.78366 6.54991 4.42984C9.03294 7.61975 11.5159 10.8097 13.9989 13.9996Z" fill="#2A6112"></path> <path d="M14.0001 14.0002L12.5005 1.96615C12.4507 1.08776 13.1653 0.348338 14.0182 0.358502C14.8578 0.368494 15.549 1.10159 15.4997 1.96615C14.9999 5.97753 14.4999 9.98891 14.0001 14.0002Z" fill="#2A6112"></path> <path d="M14 14L21.449 4.43024C22.035 3.77391 23.063 3.75636 23.6589 4.36662C24.2455 4.96739 24.216 5.97452 23.5698 6.55101C20.3799 9.03404 17.1899 11.517 14 14Z" fill="#2A6112"></path> <path d="M14 14.0001L26.0342 12.5005C26.9125 12.4507 27.652 13.1653 27.6418 14.0182C27.6318 14.8578 26.8988 15.549 26.0342 15.4997C22.0228 14.9999 18.0113 14.4999 14 14.0001Z" fill="#2A6112"></path> <path d="M14 14L23.5698 21.449C24.2262 22.0349 24.2437 23.0631 23.6334 23.6589C23.0327 24.2457 22.0255 24.216 21.449 23.5698C18.966 20.3799 16.483 17.1899 14 14Z" fill="#2A6112"></path> <path d="M14.0001 14L15.4996 26.0342C15.5494 26.9126 14.8348 27.652 13.982 27.6418C13.1423 27.6319 12.4512 26.8988 12.5005 26.0342C13.0003 22.0228 13.5001 18.0114 14.0001 14Z" fill="#2A6112"></path> </g> <defs> <clipPath id="clip0_953_1314"> <rect width="28" height="28" fill="white"></rect> </clipPath> </defs> </svg> 