<svg xmlns="http://www.w3.org/2000/svg" xmlns:xlink="http://www.w3.org/1999/xlink" width="40" zoomAndPan="magnify" viewBox="0 0 30 30.000001" height="40" preserveAspectRatio="xMidYMid meet" version="1.0"><defs><clipPath id="cd4521861d"><path d="M 13.519531 1.421875 L 16.476562 1.421875 L 16.476562 2.894531 L 13.519531 2.894531 Z M 13.519531 1.421875 " clip-rule="nonzero"/></clipPath><clipPath id="c9d6df3e25"><path d="M 13.519531 2.867188 L 16.480469 2.867188 L 16.480469 14.515625 L 13.519531 14.515625 Z M 13.519531 2.867188 " clip-rule="nonzero"/></clipPath><clipPath id="4913da249a"><path d="M 15 14.515625 L 16.480469 2.867188 L 13.519531 2.867188 Z M 15 14.515625 " clip-rule="nonzero"/></clipPath><clipPath id="ad3927cb37"><path d="M 13.523438 26.140625 L 16.480469 26.140625 L 16.480469 27.609375 L 13.523438 27.609375 Z M 13.523438 26.140625 " clip-rule="nonzero"/></clipPath><clipPath id="4e2088d6fb"><path d="M 13.519531 14.515625 L 16.480469 14.515625 L 16.480469 26.164062 L 13.519531 26.164062 Z M 13.519531 14.515625 " clip-rule="nonzero"/></clipPath><clipPath id="2becf63674"><path d="M 15 14.515625 L 13.519531 26.164062 L 16.480469 26.164062 Z M 15 14.515625 " clip-rule="nonzero"/></clipPath><clipPath id="9190999308"><path d="M 26.625 13.035156 L 28.09375 13.035156 L 28.09375 15.992188 L 26.625 15.992188 Z M 26.625 13.035156 " clip-rule="nonzero"/></clipPath><clipPath id="485514eb6b"><path d="M 15 13.035156 L 26.648438 13.035156 L 26.648438 15.996094 L 15 15.996094 Z M 15 13.035156 " clip-rule="nonzero"/></clipPath><clipPath id="758c6d684b"><path d="M 15 14.515625 L 26.648438 15.996094 L 26.648438 13.035156 Z M 15 14.515625 " clip-rule="nonzero"/></clipPath><clipPath id="4d64958b19"><path d="M 1.90625 13.039062 L 3.375 13.039062 L 3.375 15.996094 L 1.90625 15.996094 Z M 1.90625 13.039062 " clip-rule="nonzero"/></clipPath><clipPath id="8711233e60"><path d="M 3.351562 13.035156 L 15 13.035156 L 15 15.996094 L 3.351562 15.996094 Z M 3.351562 13.035156 " clip-rule="nonzero"/></clipPath><clipPath id="958b1bfd76"><path d="M 15 14.515625 L 3.351562 13.035156 L 3.351562 15.996094 Z M 15 14.515625 " clip-rule="nonzero"/></clipPath><clipPath id="5edfb1bb8f"><path d="M 22 4 L 25 4 L 25 8 L 22 8 Z M 22 4 " clip-rule="nonzero"/></clipPath><clipPath id="908d0627c7"><path d="M 23.21875 4.207031 L 25.308594 6.296875 L 24.261719 7.339844 L 22.171875 5.25 Z M 23.21875 4.207031 " clip-rule="nonzero"/></clipPath><clipPath id="2121239969"><path d="M 22.167969 5.257812 L 24.257812 7.347656 L 25.300781 6.300781 L 23.210938 4.210938 Z M 22.167969 5.257812 " clip-rule="nonzero"/></clipPath><clipPath id="5f32e5b035"><path d="M 15 5 L 25 5 L 25 15 L 15 15 Z M 15 5 " clip-rule="nonzero"/></clipPath><clipPath id="b5d9b9f4aa"><path d="M 22.191406 5.234375 L 24.28125 7.328125 L 16.046875 15.5625 L 13.953125 13.46875 Z M 22.191406 5.234375 " clip-rule="nonzero"/></clipPath><clipPath id="1441109086"><path d="M 15 14.515625 L 24.28125 7.328125 L 22.191406 5.234375 Z M 15 14.515625 " clip-rule="nonzero"/></clipPath><clipPath id="4275ea6a69"><path d="M 5 21 L 8 21 L 8 25 L 5 25 Z M 5 21 " clip-rule="nonzero"/></clipPath><clipPath id="1697b3d8d1"><path d="M 6.78125 24.824219 L 4.691406 22.738281 L 5.738281 21.691406 L 7.828125 23.78125 Z M 6.78125 24.824219 " clip-rule="nonzero"/></clipPath><clipPath id="9ae2d674c3"><path d="M 7.832031 23.777344 L 5.742188 21.6875 L 4.699219 22.730469 L 6.789062 24.820312 Z M 7.832031 23.777344 " clip-rule="nonzero"/></clipPath><clipPath id="e67966ea4f"><path d="M 5 14 L 15 14 L 15 24 L 5 24 Z M 5 14 " clip-rule="nonzero"/></clipPath><clipPath id="48d63f24b7"><path d="M 7.808594 23.796875 L 5.71875 21.707031 L 13.953125 13.46875 L 16.046875 15.5625 Z M 7.808594 23.796875 " clip-rule="nonzero"/></clipPath><clipPath id="f067930e6e"><path d="M 15 14.515625 L 5.71875 21.707031 L 7.808594 23.796875 Z M 15 14.515625 " clip-rule="nonzero"/></clipPath><clipPath id="5bb0743d1e"><path d="M 22 21 L 25 21 L 25 25 L 22 25 Z M 22 21 " clip-rule="nonzero"/></clipPath><clipPath id="fc4b76a218"><path d="M 25.308594 22.734375 L 23.21875 24.824219 L 22.175781 23.777344 L 24.265625 21.6875 Z M 25.308594 22.734375 " clip-rule="nonzero"/></clipPath><clipPath id="79cc49621b"><path d="M 24.257812 21.683594 L 22.167969 23.773438 L 23.214844 24.816406 L 25.304688 22.726562 Z M 24.257812 21.683594 " clip-rule="nonzero"/></clipPath><clipPath id="f45bbdd7c3"><path d="M 15 14 L 25 14 L 25 24 L 15 24 Z M 15 14 " clip-rule="nonzero"/></clipPath><clipPath id="3c7a4c5866"><path d="M 24.28125 21.707031 L 22.1875 23.796875 L 13.953125 15.5625 L 16.046875 13.46875 Z M 24.28125 21.707031 " clip-rule="nonzero"/></clipPath><clipPath id="c0fd7482a4"><path d="M 15 14.515625 L 22.1875 23.796875 L 24.28125 21.707031 Z M 15 14.515625 " clip-rule="nonzero"/></clipPath><clipPath id="37606a04c5"><path d="M 5 4 L 8 4 L 8 8 L 5 8 Z M 5 4 " clip-rule="nonzero"/></clipPath><clipPath id="a568163bf4"><path d="M 4.691406 6.296875 L 6.78125 4.210938 L 7.824219 5.253906 L 5.734375 7.34375 Z M 4.691406 6.296875 " clip-rule="nonzero"/></clipPath><clipPath id="0431240169"><path d="M 5.742188 7.347656 L 7.828125 5.257812 L 6.785156 4.214844 L 4.695312 6.304688 Z M 5.742188 7.347656 " clip-rule="nonzero"/></clipPath><clipPath id="0cf8b2f0b7"><path d="M 5 5 L 15 5 L 15 15 L 5 15 Z M 5 5 " clip-rule="nonzero"/></clipPath><clipPath id="c35d9ff0cb"><path d="M 5.71875 7.324219 L 7.808594 5.234375 L 16.046875 13.46875 L 13.953125 15.5625 Z M 5.71875 7.324219 " clip-rule="nonzero"/></clipPath><clipPath id="b70bbe690e"><path d="M 15 14.515625 L 7.808594 5.234375 L 5.71875 7.324219 Z M 15 14.515625 " clip-rule="nonzero"/></clipPath></defs><g clip-path="url(#cd4521861d)"><path fill="#2a6112" d="M 16.480469 2.902344 L 16.480469 2.894531 C 16.480469 2.695312 16.4375 2.5 16.363281 2.320312 C 16.289062 2.140625 16.179688 1.984375 16.046875 1.847656 C 15.910156 1.710938 15.75 1.605469 15.574219 1.53125 C 15.394531 1.453125 15.199219 1.414062 15 1.414062 C 14.800781 1.414062 14.605469 1.453125 14.425781 1.53125 C 14.25 1.605469 14.089844 1.710938 13.953125 1.847656 C 13.820312 1.984375 13.710938 2.140625 13.636719 2.320312 C 13.558594 2.5 13.519531 2.695312 13.519531 2.894531 L 13.519531 2.902344 Z M 16.480469 2.902344 " fill-opacity="1" fill-rule="nonzero"/></g><g clip-path="url(#c9d6df3e25)"><g clip-path="url(#4913da249a)"><path fill="#2a6112" d="M 13.519531 2.867188 L 16.480469 2.867188 L 16.480469 14.515625 L 13.519531 14.515625 Z M 13.519531 2.867188 " fill-opacity="1" fill-rule="nonzero"/></g></g><g clip-path="url(#ad3927cb37)"><path fill="#2a6112" d="M 13.519531 26.132812 L 13.519531 26.136719 C 13.519531 26.335938 13.558594 26.53125 13.636719 26.714844 C 13.710938 26.890625 13.820312 27.046875 13.953125 27.183594 C 14.089844 27.320312 14.25 27.425781 14.425781 27.5 C 14.605469 27.578125 14.800781 27.617188 15 27.617188 C 15.199219 27.617188 15.394531 27.578125 15.574219 27.5 C 15.75 27.425781 15.910156 27.320312 16.046875 27.183594 C 16.179688 27.046875 16.289062 26.890625 16.363281 26.714844 C 16.4375 26.53125 16.476562 26.335938 16.476562 26.136719 L 16.476562 26.132812 Z M 13.519531 26.132812 " fill-opacity="1" fill-rule="nonzero"/></g><g clip-path="url(#4e2088d6fb)"><g clip-path="url(#2becf63674)"><path fill="#2a6112" d="M 16.480469 26.164062 L 13.519531 26.164062 L 13.519531 14.515625 L 16.480469 14.515625 Z M 16.480469 26.164062 " fill-opacity="1" fill-rule="nonzero"/></g></g><g clip-path="url(#9190999308)"><path fill="#2a6112" d="M 26.613281 15.996094 L 26.621094 15.996094 C 26.820312 15.996094 27.015625 15.957031 27.199219 15.878906 C 27.375 15.804688 27.53125 15.699219 27.667969 15.5625 C 27.804688 15.425781 27.910156 15.269531 27.984375 15.089844 C 28.0625 14.910156 28.101562 14.714844 28.101562 14.515625 C 28.101562 14.316406 28.0625 14.121094 27.984375 13.941406 C 27.910156 13.765625 27.804688 13.605469 27.667969 13.46875 C 27.53125 13.335938 27.375 13.226562 27.199219 13.152344 C 27.015625 13.078125 26.820312 13.039062 26.621094 13.039062 L 26.613281 13.039062 Z M 26.613281 15.996094 " fill-opacity="1" fill-rule="nonzero"/></g><g clip-path="url(#485514eb6b)"><g clip-path="url(#758c6d684b)"><path fill="#2a6112" d="M 26.648438 13.035156 L 26.648438 15.996094 L 15 15.996094 L 15 13.035156 Z M 26.648438 13.035156 " fill-opacity="1" fill-rule="nonzero"/></g></g><g clip-path="url(#4d64958b19)"><path fill="#2a6112" d="M 3.382812 13.039062 L 3.378906 13.039062 C 3.179688 13.039062 2.984375 13.078125 2.800781 13.152344 C 2.625 13.226562 2.46875 13.335938 2.332031 13.46875 C 2.195312 13.605469 2.089844 13.765625 2.015625 13.941406 C 1.9375 14.121094 1.898438 14.316406 1.898438 14.515625 C 1.898438 14.714844 1.9375 14.910156 2.015625 15.089844 C 2.089844 15.269531 2.195312 15.425781 2.332031 15.5625 C 2.46875 15.699219 2.625 15.804688 2.800781 15.878906 C 2.984375 15.957031 3.179688 15.996094 3.378906 15.996094 L 3.382812 15.996094 Z M 3.382812 13.039062 " fill-opacity="1" fill-rule="nonzero"/></g><g clip-path="url(#8711233e60)"><g clip-path="url(#958b1bfd76)"><path fill="#2a6112" d="M 3.351562 15.996094 L 3.351562 13.035156 L 15 13.035156 L 15 15.996094 Z M 3.351562 15.996094 " fill-opacity="1" fill-rule="nonzero"/></g></g><g clip-path="url(#5edfb1bb8f)"><g clip-path="url(#908d0627c7)"><g clip-path="url(#2121239969)"><path fill="#2a6112" d="M 24.257812 7.347656 L 24.261719 7.34375 C 24.40625 7.203125 24.515625 7.039062 24.589844 6.855469 C 24.660156 6.675781 24.695312 6.488281 24.695312 6.296875 C 24.695312 6.105469 24.660156 5.917969 24.589844 5.742188 C 24.515625 5.558594 24.40625 5.394531 24.261719 5.253906 C 24.121094 5.113281 23.957031 5.003906 23.773438 4.925781 C 23.597656 4.855469 23.410156 4.820312 23.21875 4.820312 C 23.027344 4.820312 22.839844 4.855469 22.660156 4.925781 C 22.476562 5.003906 22.3125 5.113281 22.171875 5.253906 L 22.167969 5.257812 Z M 24.257812 7.347656 " fill-opacity="1" fill-rule="nonzero"/></g></g></g><g clip-path="url(#5f32e5b035)"><g clip-path="url(#b5d9b9f4aa)"><g clip-path="url(#1441109086)"><path fill="#2a6112" d="M 22.191406 5.234375 L 24.28125 7.328125 L 16.046875 15.5625 L 13.953125 13.46875 Z M 22.191406 5.234375 " fill-opacity="1" fill-rule="nonzero"/></g></g></g><g clip-path="url(#4275ea6a69)"><g clip-path="url(#1697b3d8d1)"><g clip-path="url(#9ae2d674c3)"><path fill="#2a6112" d="M 5.742188 21.683594 L 5.734375 21.6875 C 5.59375 21.828125 5.484375 21.996094 5.410156 22.175781 C 5.339844 22.355469 5.304688 22.542969 5.304688 22.734375 C 5.304688 22.925781 5.339844 23.113281 5.410156 23.289062 C 5.484375 23.472656 5.59375 23.636719 5.734375 23.78125 C 5.878906 23.921875 6.042969 24.03125 6.226562 24.105469 C 6.402344 24.175781 6.589844 24.210938 6.78125 24.210938 C 6.972656 24.210938 7.160156 24.175781 7.339844 24.105469 C 7.523438 24.03125 7.6875 23.921875 7.828125 23.78125 L 7.832031 23.773438 Z M 5.742188 21.683594 " fill-opacity="1" fill-rule="nonzero"/></g></g></g><g clip-path="url(#e67966ea4f)"><g clip-path="url(#48d63f24b7)"><g clip-path="url(#f067930e6e)"><path fill="#2a6112" d="M 7.808594 23.796875 L 5.71875 21.707031 L 13.953125 13.46875 L 16.046875 15.5625 Z M 7.808594 23.796875 " fill-opacity="1" fill-rule="nonzero"/></g></g></g><g clip-path="url(#5bb0743d1e)"><g clip-path="url(#fc4b76a218)"><g clip-path="url(#79cc49621b)"><path fill="#2a6112" d="M 22.167969 23.773438 L 22.171875 23.78125 C 22.3125 23.921875 22.476562 24.03125 22.660156 24.105469 C 22.839844 24.175781 23.027344 24.210938 23.21875 24.210938 C 23.410156 24.210938 23.597656 24.175781 23.773438 24.105469 C 23.957031 24.03125 24.121094 23.921875 24.261719 23.78125 C 24.40625 23.636719 24.515625 23.472656 24.589844 23.289062 C 24.660156 23.113281 24.695312 22.925781 24.695312 22.734375 C 24.695312 22.542969 24.660156 22.355469 24.589844 22.179688 C 24.515625 21.996094 24.40625 21.828125 24.261719 21.6875 L 24.257812 21.683594 Z M 22.167969 23.773438 " fill-opacity="1" fill-rule="nonzero"/></g></g></g><g clip-path="url(#f45bbdd7c3)"><g clip-path="url(#3c7a4c5866)"><g clip-path="url(#c0fd7482a4)"><path fill="#2a6112" d="M 24.28125 21.707031 L 22.1875 23.796875 L 13.953125 15.5625 L 16.046875 13.46875 Z M 24.28125 21.707031 " fill-opacity="1" fill-rule="nonzero"/></g></g></g><g clip-path="url(#37606a04c5)"><g clip-path="url(#a568163bf4)"><g clip-path="url(#0431240169)"><path fill="#2a6112" d="M 7.832031 5.257812 L 7.828125 5.253906 C 7.6875 5.113281 7.523438 5.003906 7.339844 4.925781 C 7.160156 4.855469 6.972656 4.820312 6.78125 4.820312 C 6.589844 4.820312 6.402344 4.855469 6.226562 4.925781 C 6.042969 5.003906 5.878906 5.113281 5.734375 5.253906 C 5.59375 5.394531 5.484375 5.558594 5.410156 5.742188 C 5.339844 5.917969 5.304688 6.105469 5.304688 6.296875 C 5.304688 6.488281 5.339844 6.675781 5.410156 6.855469 C 5.484375 7.039062 5.59375 7.203125 5.734375 7.34375 L 5.742188 7.347656 Z M 7.832031 5.257812 " fill-opacity="1" fill-rule="nonzero"/></g></g></g><g clip-path="url(#0cf8b2f0b7)"><g clip-path="url(#c35d9ff0cb)"><g clip-path="url(#b70bbe690e)"><path fill="#2a6112" d="M 5.71875 7.324219 L 7.808594 5.234375 L 16.046875 13.46875 L 13.953125 15.5625 Z M 5.71875 7.324219 " fill-opacity="1" fill-rule="nonzero"/></g></g></g></svg>